External Loads File
version=1
nRows=69
nColumns=13
Range=5.000000e-03-10 seconds
endheader
time 	forceRightX 	forceRightY 	forceRightZ 	pointRightX 	pointRightY 	pointRightZ 	forceLeftX 	forceLeftY 	forceLeftZ 	pointLeftX 	pointLeftY 	pointLeftZ 		
5.005000 164.006916 245.457492 -0.000000 0.159811 0.159068 -0.156395 -29.481857 137.732169 -0.000000 0.274408 0.494287 -0.398781
5.010000 156.011896 207.820300 -0.000000 0.152209 0.163212 -0.156494 -33.513409 153.213907 -0.000000 0.280998 0.489674 -0.399247
5.015000 145.923334 168.417697 -0.000000 0.145009 0.168117 -0.156486 -40.184394 170.819528 -0.000000 0.287425 0.484319 -0.399771
5.020000 134.300195 128.922865 -0.000000 0.138162 0.173755 -0.156690 -49.674723 190.750608 -0.000000 0.293579 0.478277 -0.400410
5.025000 121.886842 90.814469 -0.000000 0.131523 0.179830 -0.157198 -61.824062 212.911241 -0.000000 0.299676 0.471358 -0.401200
5.030000 109.159350 55.581348 -0.000000 0.125346 0.186306 -0.157161 -76.545463 236.830807 -0.000000 0.305734 0.463633 -0.402246
5.035000 96.581934 24.375683 -0.000000 0.119523 0.193126 -0.157018 -93.518938 261.792557 -0.000000 0.311606 0.455372 -0.403371
5.040000 84.577935 -2.088099 -0.000000 0.114135 0.200332 -0.156751 -111.972228 286.991515 -0.000000 0.317541 0.446741 -0.403850
5.045000 73.476118 -23.382964 -0.000000 0.109138 0.207881 -0.156488 -131.294765 311.448495 -0.000000 0.323528 0.438142 -0.403503
5.050000 63.535183 -39.535297 -0.000000 0.104597 0.215751 -0.156207 -150.868333 334.264791 -0.000000 0.329052 0.429071 -0.403234
5.055000 54.811927 -50.982674 -0.000000 0.100374 0.223877 -0.155987 -169.858305 354.984328 -0.000000 0.334438 0.419570 -0.403335
5.060000 47.318623 -58.252401 -0.000000 0.096774 0.232250 -0.156025 -188.403316 373.208331 -0.000000 0.339317 0.409714 -0.403393
5.065000 40.868444 -62.124036 -0.000000 0.093692 0.240894 -0.155943 -206.076731 389.271840 -0.000000 0.343910 0.399738 -0.403342
5.070000 35.189820 -63.391540 -0.000000 0.091099 0.249615 -0.155907 -222.644091 403.732165 -0.000000 0.348177 0.389549 -0.403537
5.075000 29.843761 -62.850047 -0.000000 0.089103 0.258524 -0.155625 -237.253973 417.652623 -0.000000 0.352212 0.378808 -0.403518
5.080000 24.617114 -61.055718 -0.000000 0.087773 0.267688 -0.155125 -250.413120 431.374727 -0.000000 0.355524 0.368031 -0.403520
5.085000 19.231034 -58.476174 -0.000000 0.086891 0.277052 -0.154835 -261.514414 445.772063 -0.000000 0.358295 0.357166 -0.403533
5.090000 13.594371 -55.377464 -0.000000 0.086368 0.286637 -0.154744 -270.038040 461.522482 -0.000000 0.360470 0.346165 -0.403590
5.095000 7.796098 -51.919473 -0.000000 0.086460 0.296546 -0.154616 -275.439742 479.129772 -0.000000 0.362047 0.335035 -0.403251
5.100000 2.065202 -48.264677 -0.000000 0.086798 0.306831 -0.154572 -277.327981 498.776335 -0.000000 0.363021 0.323958 -0.403390
5.105000 -3.309719 -44.631975 -0.000000 0.087635 0.317238 -0.154671 -275.802770 520.156716 -0.000000 0.363343 0.312911 -0.403395
5.110000 -8.202356 -41.266533 -0.000000 0.088783 0.328159 -0.154988 -269.795698 543.423104 -0.000000 0.363036 0.301844 -0.403369
5.115000 -12.377186 -38.416284 -0.000000 0.090349 0.338984 -0.155544 -260.563407 567.364894 -0.000000 0.362169 0.290869 -0.403688
5.120000 -15.833669 -36.244938 -0.000000 0.092257 0.350071 -0.156003 -247.572603 591.562368 -0.000000 0.360433 0.280117 -0.403378
5.125000 -18.575336 -34.838492 -0.000000 0.094873 0.361088 -0.156274 -231.354798 615.038919 -0.000000 0.358199 0.269505 -0.403319
5.130000 -20.706786 -34.165526 -0.000000 0.097914 0.372391 -0.156569 -211.803919 637.080804 -0.000000 0.355308 0.259249 -0.403196
5.135000 -22.267384 -34.168146 -0.000000 0.101255 0.383126 -0.157279 -190.721376 656.350219 -0.000000 0.351804 0.249242 -0.403032
5.140000 -23.498208 -34.631512 -0.000000 0.105400 0.393735 -0.157527 -166.643035 672.641252 -0.000000 0.347712 0.239390 -0.402981
5.145000 -24.482655 -35.446333 -0.000000 0.109918 0.404036 -0.157967 -141.417777 684.918100 -0.000000 0.343004 0.230147 -0.402713
5.150000 -25.413691 -36.451339 -0.000000 0.114928 0.414060 -0.158247 -114.828778 692.929885 -0.000000 0.337724 0.221310 -0.402414
5.155000 -26.454138 -37.531429 -0.000000 0.120643 0.423595 -0.158456 -87.364243 696.505377 -0.000000 0.331919 0.212826 -0.402209
5.160000 -27.762467 -38.571711 -0.000000 0.126520 0.432962 -0.158901 -59.687839 695.783757 -0.000000 0.325624 0.204516 -0.402026
5.165000 -29.437619 -39.422200 -0.000000 0.132973 0.441771 -0.159175 -33.091893 691.147351 -0.000000 0.318866 0.196796 -0.401935
5.170000 -31.492163 -39.880042 -0.000000 0.138920 0.450178 -0.160516 -9.508540 683.213688 -0.000000 0.311721 0.189587 -0.401825
5.175000 -34.274578 -39.350649 -0.000000 0.146957 0.458294 -0.159795 15.844666 672.700046 -0.000000 0.304164 0.182735 -0.401779
5.180000 -37.465086 -37.645352 -0.000000 0.154542 0.465541 -0.160840 37.784178 660.153675 -0.000000 0.296282 0.176198 -0.401822
5.185000 -41.017450 -34.278904 -0.000000 0.162357 0.472142 -0.161210 57.671604 646.115814 -0.000000 0.288046 0.170313 -0.401823
5.190000 -44.753405 -28.866967 -0.000000 0.170563 0.478203 -0.161717 76.177963 630.865109 -0.000000 0.279445 0.165212 -0.401712
5.195000 -48.413894 -21.176960 -0.000000 0.179221 0.483806 -0.162068 93.735588 614.457857 -0.000000 0.270582 0.160597 -0.401575
5.200000 -51.654604 -11.257745 -0.000000 0.187962 0.488610 -0.162376 109.557404 596.921151 -0.000000 0.261500 0.156651 -0.401417
5.205000 -54.165015 0.754658 -0.000000 0.196980 0.492924 -0.162749 124.336978 577.844334 -0.000000 0.252238 0.153259 -0.401266
5.210000 -55.612771 14.456842 -0.000000 0.206093 0.496424 -0.163075 137.743721 556.830172 -0.000000 0.242786 0.150637 -0.401083
5.215000 -55.735091 29.312176 -0.000000 0.215159 0.499296 -0.163490 149.511160 533.462212 -0.000000 0.233274 0.148628 -0.400958
5.220000 -54.404206 44.719637 -0.000000 0.223988 0.501574 -0.163893 159.286273 507.368521 -0.000000 0.223734 0.147359 -0.400833
5.225000 -51.655357 60.147451 -0.000000 0.232602 0.503150 -0.164285 166.949391 478.121659 -0.000000 0.214266 0.146759 -0.400674
5.230000 -47.687159 75.231314 -0.000000 0.240932 0.503961 -0.164638 172.463393 445.367077 -0.000000 0.204806 0.147003 -0.400584
5.235000 -42.962565 89.833364 -0.000000 0.248925 0.504132 -0.164967 175.308142 409.217529 -0.000000 0.195669 0.148012 -0.400425
5.240000 -37.985203 104.253070 -0.000000 0.256595 0.503406 -0.165127 175.691608 369.863626 -0.000000 0.186711 0.149688 -0.400216
5.245000 -33.358527 119.103244 -0.000000 0.263982 0.501931 -0.165088 173.605335 327.909799 -0.000000 0.177995 0.152102 -0.400098
5.250000 -29.644488 135.209534 -0.000000 0.271078 0.499209 -0.164797 169.172780 284.242990 -0.000000 0.169640 0.155210 -0.399831
5.255000 -27.336742 153.423115 -0.000000 0.277859 0.495632 -0.164328 162.602159 240.025839 -0.000000 0.161603 0.159064 -0.399733
5.260000 -26.859910 174.474020 -0.000000 0.284384 0.491263 -0.163867 154.189616 196.572210 -0.000000 0.153947 0.163456 -0.399543
5.265000 -28.515442 198.847984 -0.000000 0.290606 0.486041 -0.163304 144.361648 155.166654 -0.000000 0.146673 0.168469 -0.399422
5.270000 -32.577043 226.620016 -0.000000 0.296511 0.480076 -0.162534 133.570956 117.066845 -0.000000 0.139805 0.174023 -0.399429
5.275000 -38.863786 257.405027 -0.000000 0.302319 0.473147 -0.161771 122.489375 83.151543 -0.000000 0.133234 0.180096 -0.399133
5.280000 -47.521762 290.259554 -0.000000 0.307967 0.465654 -0.161228 111.495017 54.250953 -0.000000 0.127011 0.186593 -0.398900
5.285000 -57.966899 323.981896 -0.000000 0.313720 0.457587 -0.160932 101.038921 30.522363 -0.000000 0.121007 0.193488 -0.399005
5.290000 -69.557650 357.214922 -0.000000 0.319693 0.449013 -0.161004 91.357236 11.861615 -0.000000 0.115440 0.200979 -0.399131
5.295000 -82.404694 388.477595 -0.000000 0.325214 0.439978 -0.160735 82.584955 -1.889049 -0.000000 0.110269 0.208658 -0.399236
5.300000 -95.487092 416.742399 -0.000000 0.330341 0.430394 -0.160399 74.824593 -11.345658 -0.000000 0.105566 0.216762 -0.399323
5.305000 -108.436799 441.258547 -0.000000 0.335257 0.420745 -0.160417 68.082648 -17.048972 -0.000000 0.101369 0.225183 -0.399417
5.310000 -119.571464 462.072503 -0.000000 0.340105 0.410332 -0.160495 62.266311 -19.778278 -0.000000 0.097605 0.233901 -0.399573
5.315000 -130.782970 478.767504 -0.000000 0.344020 0.400225 -0.159748 57.389013 -19.843118 -0.000000 0.094345 0.242682 -0.399730
5.320000 -139.148441 492.566603 -0.000000 0.347883 0.389858 -0.160268 53.212558 -18.228668 -0.000000 0.091553 0.252217 -0.399860
5.325000 -146.357395 503.750137 -0.000000 0.351252 0.379363 -0.160208 49.665803 -15.300071 -0.000000 0.089193 0.261615 -0.399968
5.330000 -151.387831 513.511681 -0.000000 0.354104 0.368611 -0.160073 46.636619 -11.633655 -0.000000 0.087162 0.271346 -0.399413
5.335000 -154.800368 522.580146 -0.000000 0.356540 0.357794 -0.159888 44.145807 -7.569228 -0.000000 0.085869 0.281345 -0.399435
5.340000 -156.309024 531.732829 -0.000000 0.358423 0.346812 -0.159650 42.169368 -3.521301 -0.000000 0.085162 0.291498 -0.399606
5.345000 -154.828337 541.661644 -0.000000 0.359775 0.335584 -0.159355 40.601251 0.039571 -0.000000 0.084803 0.301993 -0.399498
